# xmcd
#
# Track frame offsets:
#	187
#	25530
#	46370
#	68535
#	89810
#	112135
#	127177
#	201212
#
# Disc length: 3008 seconds
# Revision: 6
# Processed by: cddbd v1.5.2PL0 Copyright (c) Steve Scherf et al.
# Submitted via: dBpowerAMP V12.0
#
DISCID=710bbe08
DTITLE=B.B. King - Completely Well [MCAD-31039]
DYEAR=1969
DGENRE=Blues
TTITLE0=So Excited
TTITLE1=No Good
TTITLE2=You're Losin' Me
TTITLE3=What Happened
TTITLE4=Confessin' the Blues
TTITLE5=Key to My Kingdom
TTITLE6=Cryin' Won't Help You Now - You're Mean
TTITLE7=The Thrill Is Gone
EXTD=
EXTT0=
EXTT1=
EXTT2=
EXTT3=
EXTT4=
EXTT5=
EXTT6=
EXTT7=
PLAYORDER=
